<svg width="75" height="75" viewBox="0 0 75 75" fill="none" xmlns="http://www.w3.org/2000/svg">
<g clip-path="url(#clip0)">
<path d="M0.480469 64.5743C0.480469 69.842 4.75053 74.1115 10.0177 74.1115H64.9085C70.1765 74.1115 74.446 69.8414 74.446 64.5743V9.6835C74.446 4.41548 70.1759 0.145996 64.9087 0.145996H10.018C4.74995 0.145996 0.480469 4.41606 0.480469 9.68321V64.574V64.5743Z" fill="#563D7C"/>
<path d="M31.1522 32.8645V22.39H40.3722C41.2505 22.39 42.0971 22.4631 42.9124 22.6096C43.7278 22.7558 44.4492 23.017 45.0765 23.3935C45.7035 23.77 46.2053 24.2926 46.5818 24.9615C46.958 25.6307 47.1464 26.4879 47.1464 27.533C47.1464 29.4147 46.5818 30.7739 45.4527 31.61C44.3238 32.4465 42.8812 32.8645 41.1248 32.8645H31.1522ZM21.3047 14.7378V59.5216H43.0066C45.0138 59.5216 46.9687 59.2708 48.8713 58.7689C50.7739 58.2671 52.4673 57.4936 53.9518 56.4483C55.436 55.4029 56.6174 54.0542 57.4955 52.4027C58.3738 50.7509 58.8127 48.796 58.8127 46.538C58.8127 43.7363 58.1331 41.3425 56.7743 39.3565C55.4152 37.3701 53.3557 35.9798 50.5959 35.1852C52.6031 34.2236 54.1191 32.9899 55.1436 31.4846C56.1679 29.9793 56.6801 28.0978 56.6801 25.8396C56.6801 23.7489 56.3351 21.9928 55.6452 20.571C54.9552 19.1494 53.983 18.0099 52.7285 17.1527C51.4742 16.2954 49.9689 15.6785 48.2125 15.3024C46.4564 14.9259 44.5119 14.7378 42.3794 14.7378H21.3047ZM31.1522 51.8693V39.5757H41.8775C44.0101 39.5757 45.7246 40.0669 47.021 41.0499C48.3171 42.0325 48.9655 43.6736 48.9655 45.9735C48.9655 47.1445 48.7667 48.106 48.3694 48.8587C47.9721 49.6114 47.4391 50.2074 46.7699 50.6463C46.101 51.0855 45.3273 51.399 44.4492 51.5873C43.5709 51.7751 42.6512 51.8693 41.6894 51.8693H31.1522Z" fill="white"/>
</g>
<defs>
<clipPath id="clip0">
<rect width="73.9655" height="73.9655" fill="white" transform="translate(0.480469 0.145996)"/>
</clipPath>
</defs>
</svg>
