<svg width="73" height="73" viewBox="0 0 73 73" fill="none" xmlns="http://www.w3.org/2000/svg">
<path d="M1.29492 1.35303H71.6323V71.6904H1.29492V1.35303Z" fill="#F5DE19"/>
<path d="M48.5448 56.3059C49.1441 57.5232 50.0751 58.5464 51.2307 59.2576C52.3863 59.9687 53.7193 60.3388 55.0761 60.3252C57.8142 60.3252 59.5651 58.9561 59.5651 57.0595C59.5651 54.7987 57.7665 53.9898 54.752 52.671L53.0991 51.9626C48.3262 49.9303 45.161 47.3856 45.161 42.0048C45.161 37.0485 48.9291 33.2729 54.84 33.2729C56.7534 33.1348 58.6652 33.563 60.3368 34.5043C62.0085 35.4455 63.366 36.8581 64.24 38.5658L59.0728 41.8692C58.7362 41.0224 58.1502 40.298 57.3924 39.7919C56.6347 39.2858 55.741 39.0221 54.8299 39.0356C54.4324 38.9958 54.031 39.0392 53.6512 39.1632C53.2714 39.2871 52.9216 39.4887 52.6241 39.7553C52.3265 40.0219 52.0878 40.3475 51.923 40.7115C51.7583 41.0754 51.6712 41.4697 51.6672 41.8692C51.6672 43.8512 52.8956 44.655 55.7317 45.8884L57.3847 46.5968C63.0016 49.0059 66.1768 51.4602 66.1768 56.9791C66.1768 62.9302 61.5019 66.1908 55.2243 66.1908C52.7783 66.3467 50.3395 65.7913 48.2022 64.5918C46.0648 63.3923 44.3203 61.5999 43.179 59.4309L48.5448 56.3059ZM25.1953 56.8787C26.2327 58.72 27.1773 60.2775 29.4482 60.2775C31.6186 60.2775 32.9901 59.4284 32.9901 56.125V33.6497H39.5993V56.213C39.5993 63.0558 35.5801 66.1707 29.7295 66.1707C27.6615 66.2838 25.6076 65.7684 23.838 64.6923C22.0683 63.6163 20.6657 62.0299 19.8145 60.1418L25.1953 56.8787Z" fill="black"/>
</svg>
