<svg width="40" height="40" viewBox="0 0 40 40" fill="none" xmlns="http://www.w3.org/2000/svg">
<path d="M20 36.6667C10.7953 36.6667 3.33337 29.2048 3.33337 20C3.33337 10.7953 10.7953 3.33337 20 3.33337C29.2048 3.33337 36.6667 10.7953 36.6667 20C36.6566 29.2006 29.2006 36.6566 20 36.6667ZM19.9734 33.3334H20C27.3612 33.326 33.3237 27.3546 33.32 19.9934C33.3164 12.6322 27.3479 6.66671 19.9867 6.66671C12.6255 6.66671 6.65706 12.6322 6.65337 19.9934C6.6497 27.3546 12.6122 33.326 19.9734 33.3334ZM16.6667 28.3334L10 21.6667L12.35 19.3167L16.6667 23.6167L27.65 12.6334L30 15L16.6667 28.3334Z" fill="#17ACFF"/>
</svg>
