<svg width="40" height="40" viewBox="0 0 40 40" fill="none" xmlns="http://www.w3.org/2000/svg">
<path d="M9.99996 31.6666H30V15.2616L20 6.17161L9.99996 15.2616V31.6666ZM31.6666 34.9999H8.33329C7.89126 34.9999 7.46734 34.8244 7.15478 34.5118C6.84222 34.1992 6.66663 33.7753 6.66663 33.3333V18.3333H1.66663L18.8783 2.68661C19.1851 2.40741 19.5851 2.25269 20 2.25269C20.4148 2.25269 20.8148 2.40741 21.1216 2.68661L38.3333 18.3333H33.3333V33.3333C33.3333 33.7753 33.1577 34.1992 32.8451 34.5118C32.5326 34.8244 32.1087 34.9999 31.6666 34.9999ZM12.5 21.6666H15.8333C15.8333 22.7717 16.2723 23.8315 17.0537 24.6129C17.8351 25.3943 18.8949 25.8333 20 25.8333C21.105 25.8333 22.1648 25.3943 22.9462 24.6129C23.7276 23.8315 24.1666 22.7717 24.1666 21.6666H27.5C27.5 23.6557 26.7098 25.5634 25.3033 26.9699C23.8967 28.3764 21.9891 29.1666 20 29.1666C18.0108 29.1666 16.1032 28.3764 14.6967 26.9699C13.2901 25.5634 12.5 23.6557 12.5 21.6666Z" fill="#17ACFF"/>
</svg>
